<svg width="14" height="14" viewBox="0 0 1015 1015" fill="none" xmlns="http://www.w3.org/2000/svg">
<path d="M875.783 815.734L732.004 672.377C778.393 613.278 803.564 540.298 803.471 465.167C803.471 398.257 783.629 332.849 746.456 277.215C709.283 221.582 656.447 178.221 594.63 152.615C532.813 127.01 464.792 120.31 399.168 133.364C333.543 146.417 273.263 178.638 225.951 225.95C178.638 273.263 146.418 333.543 133.364 399.167C120.311 464.791 127.01 532.813 152.616 594.63C178.221 656.447 221.582 709.282 277.216 746.456C332.85 783.629 398.257 803.47 465.167 803.47C540.298 803.563 613.279 778.393 672.378 732.003L815.734 875.782C819.665 879.746 824.342 882.892 829.495 885.039C834.649 887.186 840.176 888.291 845.758 888.291C851.341 888.291 856.868 887.186 862.021 885.039C867.175 882.892 871.852 879.746 875.783 875.782C879.746 871.851 882.892 867.174 885.039 862.021C887.186 856.868 888.292 851.34 888.292 845.758C888.292 840.175 887.186 834.648 885.039 829.495C882.892 824.342 879.746 819.665 875.783 815.734ZM211.44 465.167C211.44 414.984 226.321 365.929 254.201 324.203C282.08 282.478 321.707 249.957 368.07 230.753C414.433 211.549 465.449 206.524 514.667 216.315C563.885 226.105 609.095 250.27 644.58 285.754C680.064 321.239 704.229 366.449 714.019 415.667C723.81 464.885 718.785 515.901 699.581 562.264C680.377 608.627 647.856 648.253 606.131 676.133C564.405 704.013 515.35 718.894 465.167 718.894C397.875 718.894 333.338 692.162 285.755 644.579C238.172 596.996 211.44 532.459 211.44 465.167Z" fill="#231F20"/>
</svg>
