<svg xmlns="http://www.w3.org/2000/svg" version="1.1" xmlns:xlink="http://www.w3.org/1999/xlink" xmlns:svgjs="http://svgjs.dev/svgjs" width="1000" height="1000" viewBox="0 0 1000 1000"><rect width="1000" height="1000" fill="#ffffff"></rect><g transform="matrix(0.7,0,0,0.7,149.5757910645342,336.6305189473601)"><svg viewBox="0 0 396 185" data-background-color="#ffffff" preserveAspectRatio="xMidYMid meet" height="467" width="1000" xmlns="http://www.w3.org/2000/svg" xmlns:xlink="http://www.w3.org/1999/xlink"><g id="tight-bounds" transform="matrix(1,0,0,1,0.2399810549206336,-0.045563814417690196)"><svg viewBox="0 0 395.52 185.0911312823333" height="185.0911312823333" width="395.52"><g><svg viewBox="0 0 395.52 185.0911312823333" height="185.0911312823333" width="395.52"><g transform="matrix(1,0,0,1,0,95.06333057071942)"><svg viewBox="0 0 395.52 90.02780071161388" height="90.02780071161388" width="395.52"><g><svg viewBox="0 0 395.52 90.02780071161388" height="90.02780071161388" width="395.52"><g><svg viewBox="0 0 395.52 90.02780071161388" height="90.02780071161388" width="395.52"><g transform="matrix(1,0,0,1,0,0)"><svg width="395.52" viewBox="-15.018180847167969 -20.02153968811035 205.7901611328125 46.84169387817383" height="90.02780071161388" data-palette-color="#020202"><path d="M22.937 5.056v0l0.237-0.962-0.412-0.08-5.126 13.521-9.778-1.895 11.885-31.055 9.779 1.894-4.859 12.667 0.412 0.08c0.487-1.04 0.953-1.802 1.401-2.285v0l8.553-9.394 10.544 2.043-13.144 13.842 1.514 17.264-10.554-2.046-0.594-12.073c-0.032-0.359 0.015-0.866 0.142-1.521zM7.208 12.948l-0.861 2.237-21.365-6.545zM10.879 3.361l-0.861 2.237-21.365-6.544zM12.71-1.408l-0.861 2.237-21.365-6.544zM14.541-6.177l-0.862 2.237-21.365-6.544zM16.322-10.955l-0.812 2.247-21.365-6.545zM9.049 8.13l-0.862 2.237-21.365-6.545zM18.153-15.724l-0.861 2.237-21.316-6.535zM60.128 18.929l-2.482 4.994-10.441-0.909 16.568-31.432 15.352 1.337-0.548 32.826-10.491-0.913 0.241-5.189zM64.088 10.913l4.184 0.364 0.795-9.136-0.528-0.046zM46.746 20.445l-1.196 2.214-21.199-4.164zM49.329 15.57l-1.197 2.215-21.199-4.164zM51.847 10.741l-1.137 2.219-21.199-4.164zM54.425 5.916l-1.187 2.215-21.149-4.159zM56.953 1.087l-1.136 2.22-21.159-4.161zM62.05-8.568l-1.132 2.16-21.104-4.095zM59.472-3.743l-1.132 2.16-21.104-4.095zM39.814-10.503l21.104 4.095 1.132-2.16zM97.038 5.966v0l-22.281-1.69 22.579-0.68c-0.159 0.705-0.258 1.495-0.298 2.37zM76.075-0.796l22.519-0.678-0.72 2.333zM75.378 9.29l21.74-0.655c0.095 0.944 0.259 1.726 0.491 2.346v0zM104.677 15.801v0l-27.778-1.525 22.569-0.679c1.187 1.085 2.923 1.82 5.209 2.204zM79.851-5.942l22.52-0.678c-0.784 0.55-1.529 1.29-2.234 2.218v0zM95.031 21.074l-18.881-1.743 19.591-0.59zM93.505 26.202l-18.091-1.767 18.811-0.566zM95.273 25.778l2.679-8.724c2.956 0.711 5.647 1.031 8.072 0.957 2.426-0.073 4.405-0.236 5.938-0.489v0l0.341-2.631-4.361-0.289c-3.328-0.213-5.699-0.892-7.114-2.037-1.415-1.151-2.155-2.806-2.221-4.965v0c-0.028-0.946 0.043-1.999 0.216-3.158v0c0.672-4.496 2.045-7.612 4.12-9.348 2.082-1.743 5.332-2.682 9.75-2.815 4.418-0.133 8.333 0.186 11.744 0.957v0l-2.466 8.468c-3.054-0.435-5.498-0.625-7.331-0.57-1.833 0.055-3.413 0.189-4.74 0.403v0l-0.332 2.581 3.519 0.265c3.57 0.273 6.124 1.043 7.663 2.31 1.545 1.261 2.351 2.994 2.418 5.2v0c0.067 2.232-0.337 4.549-1.212 6.949v0c-0.483 1.242-1.002 2.281-1.556 3.118-0.548 0.837-1.26 1.555-2.137 2.156-0.875 0.607-1.675 1.068-2.399 1.383-0.724 0.322-1.66 0.57-2.809 0.744v0c-1.599 0.295-3.584 0.478-5.956 0.55v0c-4.331 0.13-8.273-0.208-11.826-1.015zM155.576 13.547v0l-6.426 0.981-0.151 8.025-9.846 1.503 0.752-33.244 15.54-2.372c5.872-0.896 9.224 1.384 10.058 6.84v0c0.395 2.59 0.39 4.985-0.016 7.185-0.406 2.2-0.957 3.98-1.653 5.341-0.689 1.36-1.737 2.578-3.145 3.656-1.412 1.086-3.117 1.781-5.113 2.086zM149.337 6.013l2.274-0.347c1.173-0.179 2.043-0.443 2.61-0.793 0.567-0.35 0.865-1.005 0.893-1.968v0c0.059-2.619 0.07-4.05 0.033-4.294v0c-0.101-0.659-0.427-1.051-0.979-1.176-0.546-0.132-1.337-0.12-2.371 0.039v0l-2.284 0.348zM137.636 21.738l-0.059 2.397-22.322 1.02zM137.87 11.476l-0.059 2.396-22.322 1.02zM138.062 1.27l-0.059 2.396-22.272 1.012zM138.183-3.837l-0.059 2.396-22.272 1.013zM137.749 16.582l-0.059 2.397-22.321 1.02zM138.304-8.944l-0.059 2.397-22.272 1.012zM137.942 6.376l-0.06 2.397-22.272 1.012zM190.772 14.93l-9.667 2.399-2.298-33.173 9.667-2.399zM179.382 15.16l0.161 2.392-22.134 3.062zM178.674 4.919l0.161 2.392-22.134 3.062zM178.327-0.177l0.16 2.392-22.134 3.061zM177.979-5.273l0.161 2.391-22.135 3.062zM177.583-10.357l0.209 2.379-22.134 3.062zM179.022 10.016l0.161 2.391-22.134 3.062zM177.235-15.454l0.161 2.392-22.086 3.05z" opacity="1" transform="matrix(1,0,0,1,0,0)" fill="#020202" class="undefined-text-0" data-fill-palette-color="primary" id="text-0"></path></svg></g></svg></g></svg></g></svg></g><g transform="matrix(1,0,0,1,155.32912998608052,0)"><svg viewBox="0 0 84.86174002783893 90.02780071161388" height="90.02780071161388" width="84.86174002783893"><g><svg xmlns="http://www.w3.org/2000/svg" xmlns:xlink="http://www.w3.org/1999/xlink" version="1.1" x="0" y="0" viewBox="27.849000930786133 26.500001907348633 44.303001403808594 47" style="enable-background:new 0 0 100 100;" xml:space="preserve" height="90.02780071161388" width="84.86174002783893" class="icon-icon-0" data-fill-palette-color="accent" id="icon-0"><g fill="#fe1802" data-fill-palette-color="accent"><path d="M66.958 47.497c0.144 0.144 0.335 0.22 0.53 0.22 0.097 0 0.194-0.019 0.287-0.057 0.28-0.116 0.463-0.39 0.463-0.693V41.55c0-3.252-2.646-5.899-5.898-5.899h-5.417c-0.304 0-0.577 0.183-0.693 0.463-0.115 0.28-0.052 0.603 0.163 0.817L66.958 47.497zM62.34 37.151c2.426 0 4.398 1.973 4.398 4.399v3.606l-8.005-8.005H62.34z" fill="#fe1802" data-fill-palette-color="accent"></path><path d="M27.849 29.158c0 0.199 0.079 0.39 0.22 0.53l1.931 1.931c0.293 0.292 0.768 0.293 1.061 0 1.146-1.145 3.143-1.146 4.291-0.002l4.728 4.728-1.162 1.162c-0.488 0.488-0.488 1.279 0 1.768l2.329 2.329-2.594 2.594c-0.234 0.234-0.366 0.552-0.366 0.884V72.25c0 0.69 0.56 1.25 1.25 1.25h31.365c0.69 0 1.25-0.56 1.25-1.25V38.923c0-3.966-3.227-7.193-7.193-7.193h-13.32c-0.331 0-0.649 0.132-0.884 0.366l-2.55 2.549-2.329-2.329c-0.488-0.488-1.279-0.488-1.768 0l-1.039 1.039-4.728-4.728c-1.373-1.372-3.197-2.127-5.136-2.127-1.939 0-3.764 0.755-5.137 2.127C27.928 28.768 27.849 28.958 27.849 29.158zM52.155 34.23h12.803c2.588 0 4.693 2.105 4.693 4.693V71H40.786V45.599l3.11-3.11c0 0 0.001 0 0.001 0l2.589-2.589L52.155 34.23zM44.991 34.968l1.445 1.445-3.423 3.423-1.445-1.445L44.991 34.968zM33.205 28c1.538 0 2.985 0.6 4.075 1.688l4.728 4.728-0.869 0.869-4.729-4.729c-0.857-0.854-1.996-1.325-3.205-1.325-0.957 0-1.869 0.294-2.632 0.84l-0.88-0.879C30.696 28.419 31.919 28 33.205 28z" fill="#fe1802" data-fill-palette-color="accent"></path><rect x="47.442" y="56.301" transform="matrix(0.7071 0.7071 -0.7071 0.7071 56.4288 -22.1198)" width="14.942" height="1.5" fill="#fe1802" data-fill-palette-color="accent"></rect><rect x="45.046" y="58.699" transform="matrix(0.7071 0.7071 -0.7071 0.7071 57.4202 -19.723)" width="14.942" height="1.5" fill="#fe1802" data-fill-palette-color="accent"></rect><rect x="42.649" y="61.096" transform="matrix(0.7071 0.7071 -0.7071 0.7071 58.4129 -17.3256)" width="14.942" height="1.5" fill="#fe1802" data-fill-palette-color="accent"></rect></g></svg></g></svg></g><g></g></svg></g><defs></defs></svg><rect width="395.52" height="185.0911312823333" fill="none" stroke="none" visibility="hidden"></rect></g></svg></g></svg>