<svg width="117" height="117" viewBox="0 0 117 117" fill="none" xmlns="http://www.w3.org/2000/svg">
<path d="M84.2039 106.464C64.4464 106.439 45.5056 98.5789 31.5349 84.6083C17.5643 70.6376 9.70432 51.6967 9.67871 31.9393C9.67871 26.0354 12.024 20.3733 16.1987 16.1986C20.3734 12.0239 26.0356 9.67853 31.9395 9.67853C33.1897 9.66901 34.4378 9.78247 35.6657 10.0173C36.8529 10.193 38.0199 10.4847 39.15 10.8884C39.9449 11.1672 40.6532 11.6488 41.2048 12.2853C41.7565 12.9219 42.1325 13.6914 42.2956 14.5178L48.9254 43.5536C49.1041 44.3418 49.0826 45.1621 48.8628 45.9398C48.643 46.7175 48.232 47.4277 47.6672 48.0058C47.0381 48.6833 46.9897 48.7317 41.0374 51.8288C45.804 62.2858 54.1673 70.6835 64.6047 75.493C67.7503 69.4923 67.7987 69.4439 68.4762 68.8148C69.0542 68.25 69.7645 67.8389 70.5422 67.6191C71.3198 67.3994 72.1402 67.3778 72.9283 67.5565L101.964 74.1864C102.764 74.372 103.504 74.7581 104.113 75.3084C104.723 75.8587 105.182 76.555 105.448 77.3319C105.857 78.4806 106.164 79.6626 106.368 80.8646C106.563 82.0808 106.66 83.3107 106.658 84.5425C106.569 90.4212 104.158 96.0258 99.9508 100.133C95.7439 104.24 90.083 106.516 84.2039 106.464Z" fill="#808080"/>
</svg>
