<svg width="30" height="30" viewBox="0 0 1015 1015" fill="none" xmlns="http://www.w3.org/2000/svg">
<path d="M507.455 84.5752C418.315 84.5707 332.775 119.749 269.427 182.463C206.079 245.177 170.043 330.359 169.152 419.495C169.152 651.233 467.282 909.189 479.968 920.184C487.628 926.736 497.376 930.336 507.455 930.336C517.535 930.336 527.283 926.736 534.942 920.184C549.743 909.189 845.758 651.233 845.758 419.495C844.867 330.359 808.831 245.177 745.484 182.463C682.136 119.749 596.596 84.5707 507.455 84.5752ZM507.455 830.957C436.834 763.719 253.728 577.229 253.728 419.495C253.728 352.203 280.46 287.666 328.043 240.083C375.626 192.5 440.162 165.768 507.455 165.768C574.748 165.768 639.284 192.5 686.868 240.083C734.451 287.666 761.183 352.203 761.183 419.495C761.183 575.961 578.076 763.719 507.455 830.957Z" fill="#231F20"/>
<path d="M507.455 253.727C478.182 253.727 449.566 262.407 425.226 278.67C400.887 294.934 381.916 318.049 370.714 345.094C359.511 372.139 356.58 401.898 362.291 430.609C368.002 459.32 382.099 485.692 402.798 506.391C423.497 527.091 449.869 541.187 478.58 546.898C507.291 552.609 537.05 549.678 564.095 538.476C591.14 527.273 614.256 508.303 630.519 483.963C646.782 459.623 655.463 431.007 655.463 401.734C655.463 362.48 639.869 324.834 612.112 297.077C584.355 269.32 546.709 253.727 507.455 253.727ZM507.455 465.166C494.909 465.166 482.646 461.446 472.214 454.476C461.783 447.506 453.653 437.599 448.852 426.009C444.051 414.418 442.794 401.664 445.242 389.359C447.69 377.055 453.731 365.752 462.602 356.881C471.473 348.01 482.775 341.969 495.08 339.521C507.385 337.074 520.139 338.33 531.729 343.131C543.32 347.932 553.227 356.062 560.197 366.493C567.167 376.925 570.887 389.189 570.887 401.734C570.887 418.557 564.204 434.692 552.308 446.587C540.412 458.483 524.278 465.166 507.455 465.166Z" fill="#231F20"/>
</svg>
