<svg width="992" height="993" viewBox="0 0 992 993" fill="none" xmlns="http://www.w3.org/2000/svg">
<path d="M495.909 0.979492C223.193 0.979492 0.0615234 224.111 0.0615234 496.827C0.0615234 769.543 223.193 992.675 495.909 992.675C768.625 992.675 991.757 769.543 991.757 496.827C991.757 224.111 768.625 0.979492 495.909 0.979492ZM495.909 124.941C701.686 124.941 867.795 291.05 867.795 496.827C867.795 702.604 701.686 868.713 495.909 868.713C290.132 868.713 124.023 702.604 124.023 496.827C124.023 291.05 290.132 124.941 495.909 124.941ZM433.928 248.903V524.099L453.762 540.214L515.743 602.195L557.89 649.3L647.143 560.048L600.037 517.901L557.89 475.754V251.383H433.928V248.903Z" fill="#808080"/>
</svg>
