<svg width="117" height="117" viewBox="0 0 117 117" fill="none" xmlns="http://www.w3.org/2000/svg">
<path d="M98.7716 28.5034L79.4144 19.7927H79.1724H78.5917H78.011H76.8012H76.3172H75.6881H75.4462L58.0731 27.584L40.7 19.7927H40.458L39.8773 19.3572H39.2966H38.0868H37.6029H36.9737L17.6166 28.0679C16.6511 28.4379 15.8294 29.1073 15.2721 29.9782C14.7147 30.8491 14.451 31.8755 14.5194 32.9072V91.9466C14.5208 92.7564 14.7253 93.5528 15.1142 94.263C15.5031 94.9732 16.064 95.5744 16.7455 96.0117C17.5244 96.5148 18.4314 96.7835 19.3587 96.7859C20.0434 96.7828 20.7197 96.6343 21.3428 96.3504L38.7159 88.5591L56.089 96.3504H56.3309C56.8763 96.6054 57.471 96.7375 58.0731 96.7375C58.6751 96.7375 59.2698 96.6054 59.8152 96.3504H60.0572L77.4303 88.5591L94.8034 96.3504C95.4265 96.6343 96.1027 96.7828 96.7875 96.7859C97.7147 96.7835 98.6218 96.5148 99.4007 96.0117C100.082 95.5744 100.643 94.9732 101.032 94.263C101.421 93.5528 101.625 92.7564 101.627 91.9466V32.9072C101.625 31.9763 101.354 31.0657 100.848 30.2847C100.342 29.5036 99.6206 28.8851 98.7716 28.5034ZM43.5552 31.6974L53.2338 36.0044V84.3973L43.5552 80.0904V31.6974ZM91.9482 84.4457L82.2696 80.1388V31.7458L91.9482 36.0528V84.4457Z" fill="#808080"/>
</svg>
